<svg id="Group_3" data-name="Group 3" xmlns="http://www.w3.org/2000/svg" xmlns:xlink="http://www.w3.org/1999/xlink" width="414.462" height="52.142" viewBox="0 0 414.462 52.142">
  <defs>
    <clipPath id="clip-path">
      <rect id="Rectangle_1" data-name="Rectangle 1" width="414.462" height="52.142" fill="none"/>
    </clipPath>
  </defs>
  <path id="Path_1" data-name="Path 1" d="M0,.96V15.872H5.186V6.585L6.618,5h12.9V47.351H12.1v4.03H35v-4.03H27.584V5H40.472l1.442,1.585v9.287H47.1V.96Z" transform="translate(0 -0.1)"/>
  <path id="Path_2" data-name="Path 2" d="M73.02.96V5h6.557V47.351H73.02v4.03H112.56V38.853h-4.611V45.91l-1.434,1.441H87.646V27.684H99.817l1.074,1.156v3.027H105.5V19.543h-4.612v3.028l-1.074,1.083H87.646V5h17.643l1.442,1.585v6.188h4.6V.96Z" transform="translate(-7.624 -0.1)"/>
  <path id="Path_3" data-name="Path 3" d="M162.608,14.142l2.087-7.773h.287l1.8,7.63,5.9,16.64H156.41ZM162.68.96,144.024,47.351H138.4v4.03h17.652v-4.03h-6.2l4.9-12.681H173.91l4.684,12.681h-6.412v4.03h20.6v-4.03h-5.4L170.31.96Z" transform="translate(-14.449 -0.1)"/>
  <g id="Group_2" data-name="Group 2">
    <g id="Group_1" data-name="Group 1" clip-path="url(#clip-path)">
      <path id="Path_4" data-name="Path 4" d="M284.045,5V.96H268.56L251.2,33.228,234.205.96H217.78V5h6.556V47.352H217.78v4.03h17.428v-4.03h-6.26V15.227c0-.054-.018-.564-.036-1.549s-.036-2.033-.036-3.135V6.074h.716l3.17,8.428,14.4,26.08h4.4L266.33,14.5l3.09-7.7h.654c-.054,1.388-.1,2.687-.143,3.887q-.081,1.518-.107,2.848a15.02,15.02,0,0,1-.107,1.693V47.352H263.16v4.03h20.885v-4.03h-6.556V5Z" transform="translate(-22.737 -0.1)"/>
      <path id="Path_5" data-name="Path 5" d="M355.281,31.9a11.3,11.3,0,0,0-3.063-3.627,15.805,15.805,0,0,0-4.281-2.329,25.082,25.082,0,0,0-4.756-1.218v-.287a15.2,15.2,0,0,0,4.684-1.809,13.774,13.774,0,0,0,3.35-2.821,11.622,11.622,0,0,0,2.015-3.475,11.14,11.14,0,0,0,.681-3.842,10.206,10.206,0,0,0-1.693-6.108,11.514,11.514,0,0,0-4.353-3.654A19.933,19.933,0,0,0,341.883.955,46.179,46.179,0,0,0,335.4.48c-1.442,0-2.749.027-3.923.072s-2.266.1-3.278.143-1.97.1-2.884.143S323.443.91,322.44.91H313V4.949h6.556V47.3H313v4.03h8.5q3.238,0,6.735.215t6.3.215a38.791,38.791,0,0,0,7.953-.824,23.633,23.633,0,0,0,7.03-2.615,15.252,15.252,0,0,0,5.006-4.594,11.539,11.539,0,0,0,1.908-6.672,10.756,10.756,0,0,0-1.155-5.159M327.625,4.877c.761-.1,1.711-.179,2.839-.251s2.517-.107,4.147-.107c3.457,0,6.2.743,8.213,2.248s3.027,3.842,3.027,7.039a8.967,8.967,0,0,1-2.239,6.054,12.6,12.6,0,0,1-5.9,3.735c-.824.1-1.818.188-2.991.26s-2.248.107-3.206.107h-3.887ZM347.176,41.57a9.879,9.879,0,0,1-2.7,3.278,12.675,12.675,0,0,1-4.147,2.123,17.193,17.193,0,0,1-5.221.761,47.911,47.911,0,0,1-4.863-.179,18.663,18.663,0,0,1-2.624-.475V27.563h5.9a35.382,35.382,0,0,1,5.624.43,13.88,13.88,0,0,1,4.639,1.549,8.644,8.644,0,0,1,3.17,3.027,8.862,8.862,0,0,1,1.191,4.791,9.075,9.075,0,0,1-.976,4.209" transform="translate(-32.678 -0.05)"/>
      <path id="Path_6" data-name="Path 6" d="M437.487,19.39A94.176,94.176,0,0,0,429.1,28.22a34.775,34.775,0,0,1-.958,6.493,21.757,21.757,0,0,1-2.991,6.986,14.784,14.784,0,0,1-5,4.684,14.138,14.138,0,0,1-7.138,1.729,16.333,16.333,0,0,1-7.738-1.729,15.692,15.692,0,0,1-5.436-4.684,20.053,20.053,0,0,1-3.206-6.986,34.263,34.263,0,0,1-1.048-8.643,40.8,40.8,0,0,1,.869-8.643,20.413,20.413,0,0,1,2.8-6.986,14.412,14.412,0,0,1,5.006-4.684,14.876,14.876,0,0,1,7.389-1.729,16.612,16.612,0,0,1,7.81,1.729,15.773,15.773,0,0,1,5.436,4.684,17.764,17.764,0,0,1,1.128,1.755c1.926-1.478,3.887-2.884,5.884-4.236-.17-.2-.349-.394-.528-.582a22.774,22.774,0,0,0-8.141-5.436,31.686,31.686,0,0,0-21.853,0,22.485,22.485,0,0,0-8.069,5.436,23.794,23.794,0,0,0-5.006,8.284,30.391,30.391,0,0,0-1.728,10.407,30.355,30.355,0,0,0,1.728,10.407,23.712,23.712,0,0,0,5.006,8.284,22.371,22.371,0,0,0,8.069,5.436A28.721,28.721,0,0,0,412.3,52.142,29.007,29.007,0,0,0,423.247,50.2a22.659,22.659,0,0,0,8.141-5.436,23.4,23.4,0,0,0,5.042-8.284,30.354,30.354,0,0,0,1.729-10.407,32.255,32.255,0,0,0-.672-6.681" transform="translate(-40.361)"/>
      <path id="Path_7" data-name="Path 7" d="M455.646,3.16a141.566,141.566,0,0,0-11.85,7.966c-2.215,1.686-4.347,3.445-6.407,5.3a99.318,99.318,0,0,0-7.493,7.438q-2.257,2.461-4.348,5.086-3.021,3.787-5.8,7.748a4.289,4.289,0,0,1-3.773,1.914c-.228,0-.465-.018-.711-.036a4.344,4.344,0,0,1-3.473-3.246,80.071,80.071,0,0,0-3.144-10.144,72.321,72.321,0,0,0-5.588-10.746,1.227,1.227,0,0,1,.009-1.641,1.143,1.143,0,0,1,.785-.356,1.316,1.316,0,0,1,.893.419A66.557,66.557,0,0,1,415.459,25.8c.492.8.72,1.194,1.011,1.194.264,0,.574-.328,1.176-.948a103.168,103.168,0,0,1,10.564-9.471c.064-.046.118-.091.182-.136q3.255-2.53,6.645-4.813a115.755,115.755,0,0,1,13.335-7.785c2.024-1,4.084-1.914,6.144-2.844a2.112,2.112,0,0,1,.875-.227,1.032,1.032,0,0,1,.948.592c.429.793.01,1.368-.692,1.8" transform="translate(-42.049 -0.081)" fill="#3975ea"/>
    </g>
  </g>
</svg>
